<?xml version="1.0" encoding="UTF-8" standalone="no"?>
<svg xmlns="http://www.w3.org/2000/svg" width="100" height="100" viewBox="0 0 100 100">
  <g>
    <path fill="#326ce5" d="M50,0 C77.614,0 100,22.386 100,50 C100,77.614 77.614,100 50,100 C22.386,100 0,77.614 0,50 C0,22.386 22.386,0 50,0 Z"/>
    <path fill="#ffffff" d="M50,15 C65.464,15 78,27.536 78,43 C78,58.464 65.464,71 50,71 C34.536,71 22,58.464 22,43 C22,27.536 34.536,15 50,15 Z"/>
    <path fill="#326ce5" d="M50,23 C60.493,23 69,31.507 69,42 C69,52.493 60.493,61 50,61 C39.507,61 31,52.493 31,42 C31,31.507 39.507,23 50,23 Z"/>
    <path fill="#ffffff" d="M50,33 C54.418,33 58,36.582 58,41 C58,45.418 54.418,49 50,49 C45.582,49 42,45.418 42,41 C42,36.582 45.582,33 50,33 Z"/>
    <path fill="#326ce5" d="M50,80 L50,90 M30,75 L25,85 M70,75 L75,85 M20,55 L10,60 M80,55 L90,60"/>
  </g>
</svg>
