<?xml version="1.0" encoding="UTF-8" standalone="no"?>
<svg xmlns="http://www.w3.org/2000/svg" width="200" height="200" viewBox="0 0 200 200">
  <g>
    <path fill="#326ce5" d="M100,20 C130,20 150,40 150,70 C150,100 130,120 100,120 C70,120 50,100 50,70 C50,40 70,20 100,20 Z"/>
    <path fill="#ffffff" d="M100,40 C120,40 130,50 130,70 C130,90 120,100 100,100 C80,100 70,90 70,70 C70,50 80,40 100,40 Z"/>
    <path fill="#326ce5" d="M100,120 L100,180 M80,140 L120,140 M70,160 L130,160"/>
  </g>
</svg>
